<mxfile host="app.diagrams.net" modified="2020-07-27T09:07:53.997Z" agent="5.0 (Windows NT 10.0; Win64; x64) AppleWebKit/537.36 (KHTML, like Gecko) Chrome/83.0.4103.119 Safari/537.36" etag="phfTg_QjPYaxmL4GymWB" version="13.4.6" type="github">
  <diagram id="kKOdpDLCr0rQlApXBKCT" name="Page-1">
    <mxGraphModel dx="822" dy="458" grid="1" gridSize="10" guides="1" tooltips="1" connect="1" arrows="1" fold="1" page="1" pageScale="1" pageWidth="850" pageHeight="1100" math="0" shadow="0">
      <root>
        <mxCell id="0" />
        <mxCell id="1" parent="0" />
        <mxCell id="axRyfkhzoJ68NJ_4RSVp-2" value="" style="edgeStyle=orthogonalEdgeStyle;rounded=0;orthogonalLoop=1;jettySize=auto;html=1;" edge="1" parent="1" source="axRyfkhzoJ68NJ_4RSVp-1" target="2">
          <mxGeometry relative="1" as="geometry" />
        </mxCell>
        <mxCell id="axRyfkhzoJ68NJ_4RSVp-1" value="Actor" style="shape=umlActor;verticalLabelPosition=bottom;verticalAlign=top;html=1;outlineConnect=0;" vertex="1" parent="1">
          <mxGeometry x="50" y="30" width="30" height="60" as="geometry" />
        </mxCell>
        <mxCell id="axRyfkhzoJ68NJ_4RSVp-4" value="Speech to Text" style="edgeStyle=orthogonalEdgeStyle;rounded=0;orthogonalLoop=1;jettySize=auto;html=1;" edge="1" parent="1" source="2" target="axRyfkhzoJ68NJ_4RSVp-3">
          <mxGeometry relative="1" as="geometry" />
        </mxCell>
        <mxCell id="2" value="Automatic Speech Recognition" style="whiteSpace=wrap;html=1;verticalAlign=top;" vertex="1" parent="1">
          <mxGeometry x="115" y="30" width="120" height="60" as="geometry" />
        </mxCell>
        <mxCell id="axRyfkhzoJ68NJ_4RSVp-3" value="Comparing the answer with the Reference Answer" style="whiteSpace=wrap;html=1;verticalAlign=top;" vertex="1" parent="1">
          <mxGeometry x="315" y="30" width="120" height="60" as="geometry" />
        </mxCell>
        <mxCell id="axRyfkhzoJ68NJ_4RSVp-5" value="" style="endArrow=none;html=1;" edge="1" parent="1">
          <mxGeometry width="50" height="50" relative="1" as="geometry">
            <mxPoint x="370" y="90" as="sourcePoint" />
            <mxPoint x="290" y="140" as="targetPoint" />
          </mxGeometry>
        </mxCell>
        <mxCell id="axRyfkhzoJ68NJ_4RSVp-11" value="Score" style="edgeLabel;html=1;align=center;verticalAlign=middle;resizable=0;points=[];" vertex="1" connectable="0" parent="axRyfkhzoJ68NJ_4RSVp-5">
          <mxGeometry x="0.3775" y="-2" relative="1" as="geometry">
            <mxPoint as="offset" />
          </mxGeometry>
        </mxCell>
        <mxCell id="axRyfkhzoJ68NJ_4RSVp-6" value="Score" style="endArrow=none;html=1;" edge="1" parent="1">
          <mxGeometry width="50" height="50" relative="1" as="geometry">
            <mxPoint x="370" y="90" as="sourcePoint" />
            <mxPoint x="370" y="150" as="targetPoint" />
          </mxGeometry>
        </mxCell>
        <mxCell id="axRyfkhzoJ68NJ_4RSVp-7" value="Score" style="endArrow=none;html=1;" edge="1" parent="1" target="axRyfkhzoJ68NJ_4RSVp-10">
          <mxGeometry width="50" height="50" relative="1" as="geometry">
            <mxPoint x="370" y="90" as="sourcePoint" />
            <mxPoint x="540" y="140" as="targetPoint" />
          </mxGeometry>
        </mxCell>
        <mxCell id="axRyfkhzoJ68NJ_4RSVp-8" value="Bert based Sentence similarity" style="rounded=0;whiteSpace=wrap;html=1;" vertex="1" parent="1">
          <mxGeometry x="210" y="140" width="120" height="60" as="geometry" />
        </mxCell>
        <mxCell id="axRyfkhzoJ68NJ_4RSVp-9" value="Keywords, Noun Pair Extraction" style="rounded=0;whiteSpace=wrap;html=1;" vertex="1" parent="1">
          <mxGeometry x="340" y="150" width="120" height="60" as="geometry" />
        </mxCell>
        <mxCell id="axRyfkhzoJ68NJ_4RSVp-10" value="Creating Knowledge Graph" style="rounded=0;whiteSpace=wrap;html=1;" vertex="1" parent="1">
          <mxGeometry x="510" y="140" width="120" height="60" as="geometry" />
        </mxCell>
        <mxCell id="axRyfkhzoJ68NJ_4RSVp-15" value="" style="strokeWidth=2;html=1;shape=mxgraph.flowchart.annotation_2;align=left;labelPosition=right;pointerEvents=1;rotation=-90;" vertex="1" parent="1">
          <mxGeometry x="372.5" y="77.5" width="100" height="355" as="geometry" />
        </mxCell>
        <mxCell id="axRyfkhzoJ68NJ_4RSVp-16" value="DB To store the Response and the score of the candidate&amp;nbsp;" style="strokeWidth=2;html=1;shape=mxgraph.flowchart.database;whiteSpace=wrap;" vertex="1" parent="1">
          <mxGeometry x="370" y="300" width="130" height="80" as="geometry" />
        </mxCell>
        <mxCell id="axRyfkhzoJ68NJ_4RSVp-19" value="" style="edgeStyle=orthogonalEdgeStyle;rounded=0;orthogonalLoop=1;jettySize=auto;html=1;" edge="1" parent="1" source="axRyfkhzoJ68NJ_4RSVp-17" target="axRyfkhzoJ68NJ_4RSVp-18">
          <mxGeometry relative="1" as="geometry">
            <mxPoint x="95" y="200" as="targetPoint" />
          </mxGeometry>
        </mxCell>
        <mxCell id="axRyfkhzoJ68NJ_4RSVp-17" value="DB of Questions" style="strokeWidth=2;html=1;shape=mxgraph.flowchart.database;whiteSpace=wrap;" vertex="1" parent="1">
          <mxGeometry x="40" y="240" width="110" height="90" as="geometry" />
        </mxCell>
        <mxCell id="axRyfkhzoJ68NJ_4RSVp-22" style="edgeStyle=orthogonalEdgeStyle;rounded=0;orthogonalLoop=1;jettySize=auto;html=1;" edge="1" parent="1" source="axRyfkhzoJ68NJ_4RSVp-18" target="axRyfkhzoJ68NJ_4RSVp-1">
          <mxGeometry relative="1" as="geometry" />
        </mxCell>
        <mxCell id="axRyfkhzoJ68NJ_4RSVp-18" value="Text to Speech" style="whiteSpace=wrap;html=1;strokeWidth=2;" vertex="1" parent="1">
          <mxGeometry x="35" y="140" width="120" height="50" as="geometry" />
        </mxCell>
        <mxCell id="axRyfkhzoJ68NJ_4RSVp-24" style="edgeStyle=orthogonalEdgeStyle;rounded=0;orthogonalLoop=1;jettySize=auto;html=1;entryX=1;entryY=0.5;entryDx=0;entryDy=0;entryPerimeter=0;" edge="1" parent="1" source="axRyfkhzoJ68NJ_4RSVp-23" target="axRyfkhzoJ68NJ_4RSVp-16">
          <mxGeometry relative="1" as="geometry" />
        </mxCell>
        <mxCell id="axRyfkhzoJ68NJ_4RSVp-23" value="Actor" style="shape=umlActor;verticalLabelPosition=bottom;verticalAlign=top;html=1;outlineConnect=0;" vertex="1" parent="1">
          <mxGeometry x="555" y="310" width="30" height="60" as="geometry" />
        </mxCell>
      </root>
    </mxGraphModel>
  </diagram>
</mxfile>
